<?xml version="1.0" encoding="utf-8"?>
<!-- Generator: Adobe Illustrator 23.1.0, SVG Export Plug-In . SVG Version: 6.00 Build 0)  -->
<svg version="1.1"
	 id="NexT" xmlns:cc="http://creativecommons.org/ns#" xmlns:dc="http://purl.org/dc/elements/1.1/" xmlns:rdf="http://www.w3.org/1999/02/22-rdf-syntax-ns#" xmlns:svg="http://www.w3.org/2000/svg"
	 xmlns="http://www.w3.org/2000/svg" xmlns:xlink="http://www.w3.org/1999/xlink" x="0px" y="0px" viewBox="0 0 512 512"
	 style="enable-background:new 0 0 512 512;" xml:space="preserve">
<g>
	<g>
		<circle cx="95.4" cy="255.5" r="40"/>
	</g>
	<g>
		<path d="M175.5,315.5L175.5,315.5c-11,0-20-9-20-20v-80c0-11,9-20,20-20h0c11,0,20,9,20,20v80
			C195.5,306.5,186.5,315.5,175.5,315.5z"/>
	</g>
	<g>
		<circle cx="255.5" cy="255.5" r="40"/>
	</g>
	<g>
		<circle cx="415.6" cy="255.5" r="40"/>
	</g>
	<g>
		<path d="M335.5,315.5L335.5,315.5c-11,0-20-9-20-20v-80c0-11,9-20,20-20h0c11,0,20,9,20,20v80
			C355.5,306.5,346.6,315.5,335.5,315.5z"/>
	</g>
</g>
</svg>
