<?xml version="1.0" encoding="utf-8"?>
<!-- Generator: Adobe Illustrator 23.1.0, SVG Export Plug-In . SVG Version: 6.00 Build 0)  -->
<svg version="1.1"
	 id="NexT" xmlns:cc="http://creativecommons.org/ns#" xmlns:dc="http://purl.org/dc/elements/1.1/" xmlns:rdf="http://www.w3.org/1999/02/22-rdf-syntax-ns#" xmlns:svg="http://www.w3.org/2000/svg"
	 xmlns="http://www.w3.org/2000/svg" xmlns:xlink="http://www.w3.org/1999/xlink" x="0px" y="0px" viewBox="0 0 512 512"
	 style="enable-background:new 0 0 512 512;" xml:space="preserve">
<g>
	<circle cx="96" cy="256" r="40"/>
	<path d="M176,296L176,296c-11,0-20-9-20-20v-40c0-11,9-20,20-20h0c11,0,20,9,20,20v40C196,287,187,296,176,296z"/>
	<circle cx="256" cy="256" r="40"/>
	<circle cx="416" cy="256" r="40"/>
	<path d="M336,296L336,296c-11,0-20-9-20-20v-40c0-11,9-20,20-20h0c11,0,20,9,20,20v40C356,287,347,296,336,296z"/>
</g>
</svg>
